<svg width="206" height="55" fill="none" xmlns="http://www.w3.org/2000/svg"><path d="M64.28 54.232c-.576 0-1.04-.176-1.392-.528-.32-.32-.48-.768-.48-1.344V29.704c.032-2.496.624-4.736 1.776-6.72 1.184-2.016 2.768-3.6 4.752-4.752 2.016-1.152 4.272-1.728 6.768-1.728 2.56 0 4.848.592 6.864 1.776a12.55 12.55 0 014.752 4.752c1.184 2.016 1.776 4.304 1.776 6.864 0 2.528-.576 4.8-1.728 6.816a12.766 12.766 0 01-4.608 4.8c-1.952 1.152-4.16 1.728-6.624 1.728-2.144 0-4.096-.448-5.856-1.344-1.728-.928-3.12-2.144-4.176-3.648V52.36c0 .576-.176 1.024-.528 1.344-.32.352-.752.528-1.296.528zM75.704 39.88c1.856 0 3.52-.432 4.992-1.296a9.216 9.216 0 003.456-3.552c.864-1.536 1.296-3.248 1.296-5.136 0-1.92-.432-3.632-1.296-5.136a9.216 9.216 0 00-3.456-3.552c-1.472-.896-3.136-1.344-4.992-1.344-1.824 0-3.472.448-4.944 1.344a9.216 9.216 0 00-3.456 3.552c-.832 1.504-1.248 3.216-1.248 5.136 0 1.888.416 3.6 1.248 5.136a9.216 9.216 0 003.456 3.552c1.472.864 3.12 1.296 4.944 1.296zM118.138 43c-.544 0-.992-.176-1.344-.528a1.762 1.762 0 01-.528-1.296v-12.48c0-1.984-.384-3.616-1.152-4.896a7.027 7.027 0 00-3.072-2.88c-1.28-.64-2.736-.96-4.368-.96-1.568 0-2.992.304-4.272.912-1.248.608-2.24 1.44-2.976 2.496-.736 1.056-1.104 2.256-1.104 3.6h-2.64c.064-2.016.608-3.808 1.632-5.376a10.687 10.687 0 014.08-3.744c1.696-.928 3.584-1.392 5.664-1.392 2.272 0 4.304.48 6.096 1.44 1.792.928 3.2 2.304 4.224 4.128 1.056 1.824 1.584 4.048 1.584 6.672v12.48c0 .512-.176.944-.528 1.296a1.762 1.762 0 01-1.296.528zm-20.64 0c-.576 0-1.04-.16-1.392-.48-.32-.352-.48-.8-.48-1.344v-22.56c0-.576.16-1.024.48-1.344.352-.352.816-.528 1.392-.528.544 0 .976.176 1.296.528.352.32.528.768.528 1.344v22.56c0 .544-.176.992-.528 1.344-.32.32-.752.48-1.296.48zm0-10.704c-.576 0-1.04-.176-1.392-.528-.32-.352-.48-.8-.48-1.344V7.384c0-.576.16-1.024.48-1.344.352-.352.816-.528 1.392-.528.544 0 .976.176 1.296.528.352.32.528.768.528 1.344v23.04c0 .544-.176.992-.528 1.344-.32.352-.752.528-1.296.528zm41.844 10.944c-2.56 0-4.848-.576-6.864-1.728a12.55 12.55 0 01-4.752-4.752c-1.152-2.016-1.728-4.304-1.728-6.864 0-2.592.576-4.896 1.728-6.912a12.55 12.55 0 014.752-4.752c2.016-1.152 4.304-1.728 6.864-1.728 2.56 0 4.832.576 6.816 1.728a12.55 12.55 0 014.752 4.752c1.152 2.016 1.744 4.32 1.776 6.912 0 2.56-.592 4.848-1.776 6.864a12.55 12.55 0 01-4.752 4.752c-1.984 1.152-4.256 1.728-6.816 1.728zm0-3.36c1.856 0 3.52-.432 4.992-1.296a9.216 9.216 0 003.456-3.552c.832-1.504 1.248-3.216 1.248-5.136s-.416-3.632-1.248-5.136c-.832-1.536-1.984-2.736-3.456-3.6-1.472-.864-3.136-1.296-4.992-1.296-1.856 0-3.52.432-4.992 1.296-1.472.864-2.64 2.064-3.504 3.6-.832 1.504-1.248 3.216-1.248 5.136s.416 3.632 1.248 5.136a9.57 9.57 0 003.504 3.552c1.472.864 3.136 1.296 4.992 1.296zM169.427 43c-1.696 0-3.216-.4-4.56-1.2a8.737 8.737 0 01-3.12-3.264c-.768-1.408-1.152-3.008-1.152-4.8V10.264c0-.544.16-.992.48-1.344.352-.352.8-.528 1.344-.528s.992.176 1.344.528c.352.352.528.8.528 1.344v23.472c0 1.632.48 2.976 1.44 4.032.96 1.024 2.192 1.536 3.696 1.536h1.296c.512 0 .928.176 1.248.528.32.352.48.8.48 1.344s-.192.992-.576 1.344c-.384.32-.864.48-1.44.48h-1.008zm-11.952-22.08c-.48 0-.88-.144-1.2-.432-.32-.32-.48-.704-.48-1.152 0-.48.16-.864.48-1.152.32-.32.72-.48 1.2-.48h12.24c.48 0 .88.16 1.2.48.32.288.48.672.48 1.152 0 .448-.16.832-.48 1.152-.32.288-.72.432-1.2.432h-12.24zm32.224 22.32c-2.56 0-4.848-.576-6.864-1.728a12.55 12.55 0 01-4.752-4.752c-1.152-2.016-1.728-4.304-1.728-6.864 0-2.592.576-4.896 1.728-6.912a12.55 12.55 0 014.752-4.752c2.016-1.152 4.304-1.728 6.864-1.728 2.56 0 4.832.576 6.816 1.728a12.55 12.55 0 014.752 4.752c1.152 2.016 1.744 4.32 1.776 6.912 0 2.56-.592 4.848-1.776 6.864a12.55 12.55 0 01-4.752 4.752c-1.984 1.152-4.256 1.728-6.816 1.728zm0-3.36c1.856 0 3.52-.432 4.992-1.296a9.216 9.216 0 003.456-3.552c.832-1.504 1.248-3.216 1.248-5.136s-.416-3.632-1.248-5.136c-.832-1.536-1.984-2.736-3.456-3.6-1.472-.864-3.136-1.296-4.992-1.296-1.856 0-3.52.432-4.992 1.296-1.472.864-2.64 2.064-3.504 3.6-.832 1.504-1.248 3.216-1.248 5.136s.416 3.632 1.248 5.136a9.57 9.57 0 003.504 3.552c1.472.864 3.136 1.296 4.992 1.296z" fill="#000"/><path fill-rule="evenodd" clip-rule="evenodd" d="M11.26 16.26V43L0 31.74V5h26.74L38 16.26H11.26z" fill="url(#paint0_linear)"/><path fill-rule="evenodd" clip-rule="evenodd" d="M26.74 31.74V5L38 16.26V43H11.26L0 31.74h26.74z" fill="#000"/><defs><linearGradient id="paint0_linear" x1="26.741" y1="5" x2="11.259" y2="43" gradientUnits="userSpaceOnUse"><stop stop-color="#FF00D6"/><stop offset="1" stop-color="#FF4D00"/></linearGradient></defs></svg>