<svg width="12" height="14" viewBox="0 0 12 14" fill="none" xmlns="http://www.w3.org/2000/svg">
<path d="M11.1802 9.28625C11.1802 9.93665 11.0571 10.5079 10.811 11.0001C10.5649 11.4923 10.2339 11.8995 9.81787 12.2218C9.32568 12.6085 8.78369 12.8839 8.19189 13.048C7.60596 13.212 6.85889 13.2941 5.95068 13.2941H0.712402V0.207153H5.33545C6.29639 0.207153 7.02295 0.245239 7.51514 0.321411C8.01318 0.391724 8.479 0.544067 8.9126 0.778442C9.38135 1.0304 9.72998 1.36731 9.9585 1.78918C10.1929 2.21106 10.3101 2.69739 10.3101 3.24817C10.3101 3.88684 10.1489 4.4552 9.82666 4.95325C9.51025 5.45129 9.0708 5.8175 8.5083 6.05188V6.12219C9.31689 6.29211 9.96436 6.64075 10.4507 7.16809C10.937 7.68958 11.1802 8.39563 11.1802 9.28625ZM6.97021 3.90735C6.97021 3.69641 6.91455 3.47961 6.80322 3.25696C6.69775 3.0343 6.53076 2.87317 6.30225 2.77356C6.08545 2.67981 5.82764 2.63 5.52881 2.62415C5.23584 2.61243 4.79639 2.60657 4.21045 2.60657H3.98193V5.37512H4.39502C4.95752 5.37512 5.3501 5.36926 5.57275 5.35754C5.80127 5.34583 6.03564 5.2843 6.27588 5.17297C6.53955 5.04993 6.72119 4.88 6.8208 4.66321C6.92041 4.44641 6.97021 4.19446 6.97021 3.90735ZM7.79639 9.22473C7.79639 8.82043 7.71436 8.50403 7.55029 8.27551C7.38623 8.047 7.14014 7.87415 6.81201 7.75696C6.61279 7.68079 6.3374 7.63977 5.98584 7.63391C5.64014 7.62219 5.17432 7.61633 4.58838 7.61633H3.98193V10.8947H4.15771C5.01318 10.8947 5.60498 10.8888 5.93311 10.8771C6.26123 10.8654 6.59521 10.7863 6.93506 10.6398C7.23389 10.5109 7.45068 10.3234 7.58545 10.0773C7.72607 9.82532 7.79639 9.54114 7.79639 9.22473Z" fill="#3E9CDC"/>
</svg>
