<svg width="15" height="18" viewBox="0 0 15 18" fill="none" xmlns="http://www.w3.org/2000/svg">
<path fill-rule="evenodd" clip-rule="evenodd" d="M0.779987 8.9307C0.779987 7.94664 0.863184 7.32213 2.91826 5.80087C4.61964 4.54138 10.0732 0.237427 10.0732 0.237427V7.42209H14.2204V17.7627H2.07533C1.36291 17.7627 0.779785 17.1844 0.779785 16.4778L0.779987 8.93076V8.9307Z" fill="#3E9CDC"/>
<path fill-rule="evenodd" clip-rule="evenodd" d="M10.0733 7.422V11.585L2.45239 16.7335L12.0876 13.6246V7.422H10.0733Z" fill="black" fill-opacity="0.2"/>
<path fill-rule="evenodd" clip-rule="evenodd" d="M6.59049 7.20685C7.03618 6.68023 7.68705 6.49436 8.04444 6.79173C8.40183 7.08915 8.33039 7.75719 7.88469 8.2838C7.43934 8.81035 6.7882 8.99602 6.43081 8.69859C6.07343 8.40123 6.14507 7.73333 6.59049 7.20678V7.20685Z" fill="#231F20"/>
</svg>
