<svg width="182" height="138" fill="none" xmlns="http://www.w3.org/2000/svg"><g opacity=".2" clip-path="url(#clip0)" fill="#fff"><path d="M95.713 133.735l-2.165-5.657h-.035c.04.448.061.981.061 1.598v4.059h-.685v-6.381h1.117l2.021 5.263h.035l2.038-5.263h1.109v6.381h-.742v-4.112c0-.471.02-.983.06-1.536h-.034l-2.182 5.648h-.598zm8.083 0l-.144-.681h-.035c-.239.299-.477.503-.716.611-.235.105-.531.157-.886.157-.474 0-.847-.122-1.117-.367-.268-.244-.402-.592-.402-1.043 0-.966.773-1.472 2.318-1.519l.812-.026v-.297c0-.375-.082-.651-.245-.829-.16-.18-.417-.271-.772-.271-.399 0-.85.123-1.353.367l-.223-.554c.236-.128.493-.229.773-.301.282-.073.564-.109.846-.109.571 0 .993.126 1.266.379.277.253.415.659.415 1.218v3.265h-.537zm-1.637-.511c.451 0 .805-.124 1.061-.371.259-.247.388-.594.388-1.039v-.432l-.724.031c-.576.02-.992.11-1.249.27-.253.157-.379.403-.379.738 0 .262.078.461.235.598.16.137.383.205.668.205zm5.853-4.36c.213 0 .403.017.572.052l-.101.672a2.496 2.496 0 00-.523-.065c-.387 0-.719.157-.995.471-.274.314-.411.706-.411 1.174v2.567h-.724v-4.784h.598l.083.886h.035c.177-.311.391-.551.641-.72.25-.169.525-.253.825-.253zm51.631 4.871l-2.165-5.657h-.035c.041.448.061.981.061 1.598v4.059h-.685v-6.381h1.117l2.021 5.263h.035l2.038-5.263h1.109v6.381h-.742v-4.112c0-.471.02-.983.061-1.536h-.035l-2.182 5.648h-.598zm8.083 0l-.144-.681h-.035c-.238.299-.477.503-.716.611-.235.105-.531.157-.886.157-.474 0-.846-.122-1.117-.367-.268-.244-.401-.592-.401-1.043 0-.966.772-1.472 2.317-1.519l.812-.026v-.297c0-.375-.082-.651-.244-.829-.16-.18-.418-.271-.773-.271-.399 0-.85.123-1.353.367l-.223-.554c.236-.128.494-.229.773-.301.282-.073.564-.109.847-.109.57 0 .992.126 1.265.379.277.253.415.659.415 1.218v3.265h-.537zm-1.637-.511c.451 0 .805-.124 1.061-.371.259-.247.389-.594.389-1.039v-.432l-.725.031c-.576.02-.992.11-1.248.27-.253.157-.38.403-.38.738 0 .262.079.461.236.598.16.137.382.205.667.205zm2.912-4.273h.777l1.047 2.728c.23.623.372 1.072.428 1.349h.035c.037-.149.116-.402.235-.76.123-.361.518-1.466 1.188-3.317h.776l-2.055 5.447c-.204.538-.443.919-.716 1.144-.271.227-.604.34-1 .34-.221 0-.439-.025-.654-.074v-.581c.16.035.339.053.537.053.497 0 .852-.28 1.065-.838l.266-.681-1.929-4.81zm-38.966 4.784l-.795-2.03h-2.557l-.786 2.03h-.751l2.523-6.408h.624l2.51 6.408h-.768zm-1.026-2.698l-.742-1.977a10.59 10.59 0 01-.297-.921c-.064.28-.155.587-.275.921l-.75 1.977h2.064zm4.788 2.785c-.311 0-.596-.057-.855-.17a1.625 1.625 0 01-.646-.533h-.053c.035.28.053.544.053.795v1.968h-.725v-6.931h.589l.101.655h.035c.186-.262.403-.451.65-.568.247-.116.531-.174.851-.174.634 0 1.123.217 1.467.65.346.434.519 1.042.519 1.824 0 .786-.176 1.397-.528 1.834-.349.433-.835.65-1.458.65zm-.105-4.343c-.489 0-.842.135-1.06.406-.219.271-.331.701-.336 1.292v.161c0 .673.112 1.154.336 1.445.224.288.583.432 1.078.432.413 0 .736-.167.969-.502.235-.334.353-.795.353-1.383 0-.597-.118-1.054-.353-1.371-.233-.32-.562-.48-.987-.48zm5.543-.615c.213 0 .403.017.572.052l-.1.672a2.513 2.513 0 00-.524-.065c-.387 0-.719.157-.995.471-.274.314-.411.706-.411 1.174v2.567h-.724v-4.784h.598l.083.886h.035c.177-.311.391-.551.641-.72.251-.169.526-.253.825-.253zm-76.993 4.871H61.5v-6.381h3.557v.659h-2.815v2.335h2.645v.659h-2.645v2.728zm5.787.087c-.707 0-1.265-.215-1.676-.646-.407-.431-.61-1.029-.61-1.794 0-.771.188-1.383.567-1.837.38-.454.891-.681 1.532-.681.599 0 1.073.198 1.422.593.35.393.524.913.524 1.559v.458h-3.295c.014.561.156.988.423 1.279.27.291.65.436 1.14.436.514 0 1.024-.108 1.527-.323v.646a3.707 3.707 0 01-.729.236 3.968 3.968 0 01-.825.074zm-.196-4.352c-.384 0-.691.126-.921.376-.227.25-.36.596-.402 1.039h2.501c0-.457-.102-.806-.305-1.048-.204-.244-.495-.367-.873-.367zm5.42-.597c.63 0 1.117.215 1.463.645.349.428.524 1.035.524 1.82 0 .786-.176 1.397-.529 1.834-.349.433-.835.65-1.457.65-.312 0-.597-.057-.856-.17a1.629 1.629 0 01-.646-.533H71.7l-.153.616h-.52v-6.792h.725v1.65c0 .37-.011.701-.035.995h.035c.338-.477.838-.715 1.502-.715zm-.104.606c-.495 0-.851.143-1.07.428-.218.282-.327.759-.327 1.431 0 .673.112 1.154.336 1.445.224.288.584.432 1.078.432.446 0 .777-.161.996-.484.218-.326.327-.793.327-1.401 0-.623-.11-1.087-.328-1.393-.218-.305-.555-.458-1.012-.458zm-43.627 5.936c-.274 0-.49-.039-.646-.118v-.633c.206.058.422.088.646.088.288 0 .506-.088.654-.262.152-.175.227-.427.227-.755v-6.381h.742v6.32c0 .552-.14.98-.419 1.283-.279.305-.68.458-1.204.458zm6.154-1.68l-.144-.681h-.035c-.239.299-.477.503-.716.611-.236.105-.531.157-.886.157-.474 0-.847-.122-1.117-.367-.268-.244-.402-.592-.402-1.043 0-.966.773-1.472 2.318-1.519l.811-.026v-.297c0-.375-.081-.651-.244-.829-.16-.18-.418-.271-.772-.271-.4 0-.85.123-1.353.367l-.223-.554c.236-.128.493-.229.773-.301.282-.073.564-.109.846-.109.57 0 .992.126 1.266.379.276.253.415.659.415 1.218v3.265h-.537zm-1.637-.511c.451 0 .804-.124 1.06-.371.26-.247.389-.594.389-1.039v-.432l-.724.031c-.577.02-.993.11-1.249.27-.253.157-.38.403-.38.738 0 .262.08.461.236.598.16.137.383.205.668.205zm6.944.511v-3.095c0-.39-.089-.681-.266-.873-.178-.192-.456-.288-.834-.288-.5 0-.867.135-1.1.406-.233.271-.349.717-.349 1.34v2.51h-.724v-4.784h.589l.118.655h.035a1.46 1.46 0 01.624-.546c.267-.131.566-.196.894-.196.577 0 1.01.139 1.301.419.291.276.437.72.437 1.331v3.121h-.725z"/></g><path d="M20.807 54.567h160.895M20.807 9.874h160.895M20.807 32.22h160.895M20.807 76.913h160.895M20.807 99.26h160.895M20.807 121.606h160.895" opacity=".1" stroke="#EDE9F2" stroke-width=".447"/><g opacity=".2" clip-path="url(#clip1)" fill="#fff"><path d="M8.281 25.362c.582 0 1.043.135 1.384.406.34.27.51.644.51 1.121 0 .315-.097.601-.292.86-.195.26-.506.495-.934.707.518.248.886.508 1.104.782.218.27.327.584.327.942 0 .53-.184.953-.554 1.27-.37.315-.876.472-1.519.472-.68 0-1.204-.149-1.57-.445-.368-.3-.55-.724-.55-1.27 0-.73.444-1.3 1.335-1.707-.402-.227-.69-.471-.864-.733a1.575 1.575 0 01-.262-.886c0-.463.17-.831.51-1.105.344-.276.802-.414 1.375-.414zm-1.379 4.862c0 .35.12.621.362.816.245.195.587.293 1.026.293.433 0 .771-.102 1.012-.306.242-.204.363-.483.363-.838 0-.282-.114-.532-.34-.75-.228-.222-.623-.436-1.188-.642-.433.186-.748.393-.943.62a1.189 1.189 0 00-.292.807zm1.37-4.273c-.363 0-.648.087-.855.262a.868.868 0 00-.31.698 1 1 0 00.258.69c.171.192.488.384.951.576.416-.175.71-.362.882-.563.174-.2.262-.435.262-.703a.85.85 0 00-.319-.698c-.21-.175-.499-.262-.869-.262zm8.062 5.883h-.873l-2.327-3.094-.667.594v2.5h-.742v-6.38h.742v3.164l2.893-3.165h.878l-2.567 2.772 2.663 3.61zm-5.971 67.04H6.17v-.624l1.68-1.69c.512-.517.85-.886 1.013-1.108.163-.22.285-.436.366-.646a1.85 1.85 0 00.122-.676c0-.34-.103-.61-.31-.808-.206-.2-.493-.3-.86-.3a2.18 2.18 0 00-.754.13c-.236.088-.5.246-.79.476l-.384-.493c.587-.49 1.228-.734 1.92-.734.6 0 1.07.155 1.41.463.34.306.51.717.51 1.235 0 .405-.113.805-.34 1.2-.227.396-.652.897-1.274 1.502L7.08 98.167v.035h3.282v.672zm5.97 0h-.872l-2.327-3.094-.667.593v2.501h-.742v-6.38h.742v3.163l2.893-3.164h.878l-2.567 2.772 2.663 3.61zm-.444 19.147c0 1.103-.175 1.927-.524 2.471-.346.544-.877.816-1.593.816-.687 0-1.21-.278-1.567-.834-.358-.558-.537-1.376-.537-2.453 0-1.111.173-1.936.52-2.474.346-.539.874-.808 1.584-.808.692 0 1.217.281 1.575.843.361.561.542 1.374.542 2.439zm-3.488 0c0 .929.11 1.605.328 2.03.218.422.566.633 1.043.633.483 0 .832-.214 1.047-.642.218-.43.328-1.104.328-2.021 0-.916-.11-1.587-.328-2.012-.215-.427-.564-.641-1.047-.641-.477 0-.825.211-1.043.633-.219.419-.328 1.092-.328 2.02zM6.243 51.453c0-1.254.243-2.19.729-2.81.489-.623 1.21-.935 2.165-.935.328 0 .587.028.777.083v.625a2.484 2.484 0 00-.769-.11c-.683 0-1.206.214-1.567.642-.36.425-.558 1.094-.593 2.008h.052c.32-.5.827-.751 1.52-.751.572 0 1.023.173 1.352.52.332.346.498.816.498 1.41 0 .663-.182 1.185-.546 1.566-.36.378-.85.567-1.466.567-.66 0-1.185-.247-1.572-.742-.387-.497-.58-1.188-.58-2.073zm2.143 2.2c.413 0 .733-.13.96-.389.23-.261.345-.638.345-1.13 0-.422-.106-.754-.319-.995-.212-.242-.53-.362-.951-.362-.262 0-.502.053-.72.161a1.349 1.349 0 00-.524.445 1.04 1.04 0 00-.192.59c0 .3.058.579.174.838.117.258.281.464.494.615.215.151.46.227.733.227zm7.948.528h-.873l-2.327-3.094-.667.593v2.501h-.742v-6.38h.742v3.163L15.36 47.8h.878l-2.567 2.772 2.663 3.609zM3.738 9.488H3.03V4.94c0-.378.011-.736.035-1.074a4.48 4.48 0 01-.206.193c-.075.066-.422.35-1.038.85l-.384-.497 1.689-1.305h.61v6.381zm6.66-3.2c0 1.104-.175 1.927-.524 2.471-.346.544-.877.816-1.593.816-.687 0-1.209-.278-1.567-.833-.358-.559-.537-1.377-.537-2.453 0-1.112.174-1.937.52-2.475.346-.538.874-.807 1.584-.807.693 0 1.218.28 1.576.842.36.562.541 1.375.541 2.44zm-3.487 0c0 .929.109 1.606.327 2.03.218.422.566.633 1.043.633.483 0 .832-.214 1.048-.641.218-.431.327-1.105.327-2.021 0-.917-.11-1.587-.327-2.012-.216-.428-.565-.642-1.048-.642-.477 0-.825.211-1.043.633-.218.419-.327 1.093-.327 2.02zm9.423 3.2h-.873l-2.327-3.094-.667.593v2.501h-.742v-6.38h.742V6.27l2.893-3.164h.878L13.67 5.88l2.663 3.609zm-5.67 65.573h-.947v1.467h-.694V75.06H5.92v-.633l3.029-4.316h.768v4.29h.947v.66zm-1.64-.659v-2.121c0-.416.014-.886.043-1.41h-.035c-.14.28-.27.51-.393.694l-1.995 2.837h2.38zm7.31 2.126h-.873l-2.327-3.095-.667.594v2.5h-.742v-6.38h.742v3.164l2.893-3.164h.878l-2.567 2.771 2.663 3.61z"/></g><path d="M97.68 69.315a2.682 2.682 0 015.363 0v51.844h-5.364V69.315z" fill="#8476AA"/><path d="M105 84.5a2.5 2.5 0 115 0V121h-5V84.5z" fill="#99EFD0"/><path d="M65.5 54.12a2.682 2.682 0 115.364 0v67.039H65.5v-67.04z" fill="#8476AA"/><path d="M73 74.5a2.5 2.5 0 015 0V121h-5V74.5z" fill="#99EFD0"/><path d="M162.037 16.578a2.682 2.682 0 015.364 0v104.581h-5.364V16.577z" fill="#8476AA"/><path d="M169 47.5a2.5 2.5 0 115 0V121h-5V47.5z" fill="#99EFD0"/><path d="M33.322 89.874a2.682 2.682 0 015.363 0v31.285H33.32V89.874z" fill="#8476AA"/><path d="M40 100a3 3 0 116 0v21h-6v-21z" fill="#99EFD0"/><path d="M129.858 28.198a2.682 2.682 0 015.364 0v92.961h-5.364V28.198z" fill="#8476AA"/><path d="M137 55.5a2.5 2.5 0 115 0V121h-5V55.5z" fill="#99EFD0"/><defs><clipPath id="clip0"><path fill="#fff" transform="translate(27.064 124.735)" d="M0 0h146.593v12.514H0z"/></clipPath><clipPath id="clip1"><path fill="#fff" transform="translate(.249 .488)" d="M0 0h16.09v124.247H0z"/></clipPath></defs></svg>